<?xml version="1.0" encoding="UTF-8" standalone="no"?>
<svg
   xmlns:dc="http://purl.org/dc/elements/1.1/"
   xmlns:cc="http://creativecommons.org/ns#"
   xmlns:rdf="http://www.w3.org/1999/02/22-rdf-syntax-ns#"
   xmlns:svg="http://www.w3.org/2000/svg"
   xmlns="http://www.w3.org/2000/svg"
   xmlns:sodipodi="http://sodipodi.sourceforge.net/DTD/sodipodi-0.dtd"
   xmlns:inkscape="http://www.inkscape.org/namespaces/inkscape"
   width="130.2327mm"
   height="103.23586mm"
   viewBox="0 0 130.2327 103.23585"
   version="1.1"
   id="svg14"
   inkscape:version="1.0 (4035a4fb49, 2020-05-01)"
   sodipodi:docname="logo senza testo.svg">
  <defs
     id="defs8" />
  <sodipodi:namedview
     inkscape:pagecheckerboard="true"
     id="base"
     pagecolor="#ffffff"
     bordercolor="#666666"
     borderopacity="1.0"
     inkscape:pageopacity="0"
     inkscape:pageshadow="2"
     inkscape:zoom="0.35"
     inkscape:cx="-234.06906"
     inkscape:cy="322.4294"
     inkscape:document-units="mm"
     inkscape:current-layer="layer2"
     inkscape:document-rotation="0"
     showgrid="false"
     inkscape:window-width="1615"
     inkscape:window-height="1030"
     inkscape:window-x="246"
     inkscape:window-y="0"
     inkscape:window-maximized="0" />
  <metadata
     id="metadata11">
    <rdf:RDF>
      <cc:Work
         rdf:about="">
        <dc:format>image/svg+xml</dc:format>
        <dc:type
           rdf:resource="http://purl.org/dc/dcmitype/StillImage" />
        <dc:title></dc:title>
      </cc:Work>
    </rdf:RDF>
  </metadata>
  <g
     transform="translate(-0.34912603,-0.24040086)"
     inkscape:label="Livello 2"
     id="layer2"
     inkscape:groupmode="layer">
    <path
       id="path30"
       d="m 50.391193,101.80447 c -2.003788,-1.854577 -2.200368,-2.836074 -1.10303,-5.507389 0.587531,-1.430229 1.223521,-1.770221 3.311401,-1.770221 3.36867,0 3.861411,-0.898139 2.01209,-3.66758 -0.830821,-1.24419 -1.7263,-3.510759 -1.98996,-5.03682 -0.52754,-3.053379 -5.43292,-8.43252 -9.43781,-10.34931 -3.196161,-1.52972 -10.124421,-1.409419 -11.44144,0.19866 -0.566219,0.691351 -1.082101,1.024091 -1.146411,0.73941 -0.40219,-1.780439 -0.283228,-2.369349 0.697011,-3.45059 0.602199,-0.664239 1.797859,-1.212469 2.65703,-1.218279 0.859179,-0.006 2.065449,-0.342511 2.6806,-0.748221 0.851871,-0.561819 0.540829,-0.64567 -1.30487,-0.351739 -1.636381,0.26058 -2.430999,0.111371 -2.446911,-0.459489 -0.01299,-0.464971 -0.85181,0.0259 -1.864109,1.090909 -1.012301,1.064969 -1.84055,1.62796 -1.84055,1.25109 0,-0.37687 0.92274,-1.516131 2.050521,-2.531679 1.51193,-1.36144 2.989059,-1.91167 5.623689,-2.094791 2.060239,-0.1432 3.393189,0.02119 3.148111,0.3882 -0.73143,1.095359 2.09613,1.95236 5.209029,1.578811 1.64042,-0.19685 3.905311,-0.396161 5.0331,-0.442921 1.908659,-0.0791 3.047209,-1.120201 1.2251,-1.120201 -0.45398,0 -0.63641,-0.455879 -0.405389,-1.013079 0.231018,-0.557191 0.0937,-1.199761 -0.30521,-1.427919 -0.398881,-0.228171 -0.532201,-0.703942 -0.296251,-1.05728 0.235939,-0.353341 -0.0662,-0.64244 -0.671349,-0.64244 -0.605181,0 -1.225661,0.347998 -1.378852,0.773329 -0.18505,0.513821 -1.44326,0.282239 -3.74944,-0.69012 -1.909019,-0.804889 -3.781829,-1.46344 -4.161819,-1.46344 -1.637641,0 -12.251139,-7.188361 -18.74163,-12.69343 -3.87616,-3.287649 -8.05113,-6.440919 -9.277711,-7.007249 l -2.23014,-1.0297 1.762071,1.735968 c 0.96914,0.954791 1.886319,1.620991 2.03817,1.48045 0.15185,-0.140539 4.17959,3.435119 8.95053,7.945911 8.862589,8.379309 14.5597,11.95234 18.853419,11.8242 1.207022,-0.036 0.71024,0.280739 -1.409308,0.898631 -1.800381,0.524848 -3.857771,1.125929 -4.571971,1.33573 -0.79725,0.234199 -1.47983,-0.0558 -1.768131,-0.751131 -0.338558,-0.81657 -0.155149,-1.020911 0.657341,-0.73234 1.67612,0.595289 1.36293,-0.0811 -0.45435,-0.98126 -1.111361,-0.55049 -1.43066,-0.55771 -1.07446,-0.02429 0.278739,0.417438 0.203989,0.75897 -0.166121,0.75897 -0.37011,0 -2.102728,-1.569391 -3.850259,-3.487531 -3.09478,-3.396929 -7.12755,-6.208461 -13.8331,-9.644041 -1.963651,-1.00607 -6.5767106,-6.656178 -6.0628104,-7.425769 0.2208797,-0.33078 -1.4283702,-2.274081 -3.6650002,-4.31844 -3.60745,-3.297351 -5.34044994,-5.60947 -3.35188,-4.47199 0.39311,0.224859 0.047,-0.988221 -0.76906,-2.695749 C 0.31398346,30.95177 0.13739346,29.57962 0.54863343,25.864549 1.1286034,20.625289 2.2847134,19.219659 2.4306734,23.576339 l 0.0996,2.97374 0.4904,-3.24907 c 0.69474,-4.60285 1.68813,-5.04675 1.14409,-0.51123 -0.51267,4.27395 0.47886,9.366459 1.7735,9.108721 0.47664,-0.0949 0.86662,0.35053 0.86662,0.989819 0,2.56849 3.1992296,7.133802 6.5744506,9.38176 1.92046,1.27907 6.38348,4.807212 9.91782,7.840321 11.65054,9.9983 17.127399,12.64408 27.28828,13.18251 6.31817,0.334799 7.188319,0.220049 10.81183,-1.425771 11.333731,-5.147839 28.913571,-21.92156 35.929419,-34.28188 3.105767,-5.47167 7.396317,-15.55782 9.308597,-21.882539 1.69286,-5.59897004 2.74753,-4.56083 2.12502,2.09173 l -0.39891,4.263119 0.98669,-2.7604784 c 0.54268,-1.5182606 1.03607,-3.6921405 1.09641,-4.8308307 0.0603,-1.1387 0.38731,-2.6914699 0.7266,-3.4505999 0.55092,-1.23266999 0.74463,-1.10590999 1.81169,1.18554 1.70618,3.6638699 1.45382,8.429519 -0.74117,13.997079 -2.39868,6.0842 -2.51049,6.954881 -0.86017,6.69842 1.16204,-0.18059 1.65543,0.56333 1.39318,2.10061 -0.44956,2.635181 4.00687,-4.598 6.28665,-10.20377 2.17798,-5.3554894 2.37063,-7.9951389 0.30367,-4.16082 -2.00837,3.72561 -7.55725,11.53854 -7.94198,11.18246 -0.17248,-0.15964 0.92879,-2.0878 2.44728,-4.28481 1.51848,-2.19702 3.86244,-6.19049 5.20878,-8.8743989 1.96685,-3.9208702 2.55679,-4.6197801 3.00201,-3.55649 0.88408,2.11143 -0.87322,8.2405489 -4.10872,14.3304389 l -2.99082,5.62933 3.36996,-3.05024 c 1.85348,-1.67764 4.37407,-4.99121 5.6013,-7.36349 1.22723,-2.37229 2.42891,-4.31325 2.67038,-4.31325 0.24149,0 0.25301,1.66842 0.0257,3.70759 -0.46026,4.12741 -2.69641,8.77092 -5.60906,11.64757 -1.05687,1.0438 -1.50346,1.89783 -0.99242,1.89783 0.51246,0 0.69055,0.35731 0.39711,0.79674 -0.33228,0.49761 -0.20425,0.609262 0.34098,0.297381 0.48016,-0.274661 0.64598,-0.866111 0.36849,-1.314341 -0.27749,-0.448231 -0.21839,-0.57404 0.13133,-0.27958 0.34973,0.29446 2.40846,-1.08484 4.57496,-3.0651 2.1665,-1.98027 4.1496,-3.40566 4.40689,-3.16753 0.85342,0.78987 -3.23954,7.975372 -5.23068,9.182861 -1.07665,0.65292 -1.80289,1.33027 -1.61386,1.505231 0.18903,0.174947 1.8772,-0.658421 3.75149,-1.851941 2.66441,-1.69668 3.40776,-1.927101 3.40776,-1.05633 0,1.881769 -1.40341,3.67842 -4.29275,5.49557 -3.08289,1.93888 -2.76767,2.298121 0.60156,0.68557 1.45371,-0.69577 2.1999,-0.7894 2.1999,-0.27605 0,1.172008 -4.90293,5.46967 -6.24001,5.46967 -0.70531,0 -1.00795,0.389919 -0.76237,0.98225 0.44969,1.084601 -1.37819,2.18441 -6.04639,3.63806 l -2.98257,0.928759 2.8819,-0.32861 c 2.81996,-0.32154 2.85353,-0.299601 1.56213,1.02112 -0.72587,0.742349 -2.02272,1.354481 -2.8819,1.3603 -1.29211,0.009 -1.3688,0.130302 -0.44367,0.70323 0.9681,0.599541 0.92387,0.83008 -0.32892,1.714731 -0.79607,0.562139 -2.00234,1.022069 -2.6806,1.022069 -1.60373,0 -4.41571,2.738102 -2.88478,2.808981 0.60688,0.0281 0.42023,0.298029 -0.44367,0.641609 -1.27521,0.50718 -1.30222,0.600141 -0.18641,0.64162 1.58634,0.059 1.76506,1.428742 0.18641,1.428742 -0.61516,0 -1.11847,0.34453 -1.11847,0.76562 0,0.466558 -1.00514,0.657018 -2.57325,0.487579 -2.04029,-0.220451 -2.40747,-0.0932 -1.77281,0.614619 0.57385,0.639961 0.56352,0.892662 -0.0365,0.892662 -0.99149,0 -3.844234,2.507549 -3.361284,2.954539 0.782627,0.724349 -3.61359,2.612249 -5.152489,2.21267 -1.138841,-0.295701 -1.33632,-0.229341 -0.642929,0.216051 1.445289,0.92837 -0.473562,3.58829 -2.588591,3.58829 -1.045961,0 -1.56595,0.403569 -1.49833,1.16287 0.0705,0.791668 -0.685551,1.317519 -2.368489,1.647359 -1.359641,0.26647 -3.205113,1.07718 -4.101053,1.80158 -2.773828,2.24273 -5.477787,3.15776 -8.398658,2.84216 -2.70239,-0.291989 -2.74365,-0.26542 -1.128882,0.72691 l 1.676051,1.029981 -1.735439,0.963189 c -1.270241,0.705009 -1.33568,0.82945 -0.244142,0.464249 0.820211,-0.274418 4.007843,-0.614469 7.083621,-0.755669 8.621811,-0.395819 15.707601,-2.81505 19.49955,-6.657541 2.348914,-2.38025 2.688914,-2.097058 1.035394,0.862412 -0.598797,1.071719 -0.886307,2.135918 -0.638917,2.364899 0.247387,0.22896 -0.10153,0.612119 -0.775377,0.85145 -0.67386,0.239321 -1.225188,0.819611 -1.225188,1.289521 0,1.69962 -2.712982,3.13866 -5.917232,3.13866 -2.352299,0 -3.089849,0.241689 -2.808481,0.920318 0.557202,1.343912 -4.206388,2.8213 -6.089419,1.88858 -1.219539,-0.604078 -1.38611,-0.514429 -1.076979,0.579631 0.34227,1.211389 3.114008,2.16835 6.10553,2.10797 0.845159,-0.01709 0.647798,-0.33805 -0.652441,-1.061159 -1.84676,-1.02707 -1.83982,-1.032211 0.745651,-0.552061 3.402129,0.631809 6.73648,0.406709 7.96611,-0.53779 0.70449,-0.541149 0.981609,-0.542189 0.981609,-0.004 0,1.041241 -2.50526,2.179151 -4.79766,2.179151 -1.05223,0 -1.913131,0.310549 -1.913131,0.69012 0,0.91245 -4.944568,0.878121 -9.708118,-0.0674 -3.95338,-0.784711 -5.798812,-0.336312 -3.505171,0.851689 0.722889,0.37443 1.133092,0.952211 0.911561,1.283959 -0.22153,0.331761 0.268989,1.710161 1.090049,3.063121 0.82105,1.352971 1.14322,2.45994 0.71592,2.45994 -0.427299,0 -0.54874,0.341691 -0.269869,0.759312 0.352059,0.527238 -0.738802,0.685437 -3.569042,0.517588 -2.696808,-0.15993 -4.493508,0.0788 -5.309719,0.70543 -1.322991,1.015762 -1.728621,2.522982 -0.488,1.813329 1.55847,-0.891457 0.65949,0.855602 -1.21752,2.366104 -1.56146,1.256577 -1.752179,1.703497 -0.93205,2.184237 0.771951,0.45249 0.618749,0.60705 -0.609539,0.61496 -0.902362,0.006 -1.95515,-0.50956 -2.339552,-1.14528 -0.703829,-1.16404 -1.45469,-1.42939 -5.907858,-2.087937 -2.04103,-0.301817 -2.355381,-0.175707 -1.957001,0.785137 0.539351,1.30085 -1.558189,3.09235 -3.660949,3.12683 -0.73632,0.0121 -2.162371,-0.74034 -3.168992,-1.67198 z m 6.37187,-0.68076 c 0,-0.16738 -0.335539,-0.49626 -0.745638,-0.73085 -0.410112,-0.23458 -0.745651,-0.0976 -0.745651,0.30433 0,0.40197 0.335539,0.73085 0.745651,0.73085 0.410099,0 0.745638,-0.13694 0.745638,-0.30433 z m 8.863531,-3.433809 c -0.0509,-0.411189 -0.0527,-1.446369 -0.004,-2.300391 0.131731,-2.315289 1.579631,-1.878198 1.579631,0.476861 0,1.116291 0.315669,2.210189 0.701479,2.430881 0.41234,0.23586 0.536761,-0.53816 0.301879,-1.87782 -0.348869,-1.989711 -0.187129,-2.293892 1.273803,-2.395741 1.876279,-0.13082 3.475169,-1.304089 2.724247,-1.999091 -0.270319,-0.250198 -0.91903,-0.165489 -1.441569,0.18823 -0.522549,0.353732 -2.018249,0.581091 -3.32378,0.505251 -2.034519,-0.118179 -2.48733,0.163819 -3.168981,1.973609 -1.078108,2.862353 -1.000897,3.745852 0.327321,3.745852 0.61744,0 1.08099,-0.336442 1.030121,-0.747641 z M 51.703473,97.188372 c 0.211341,-0.586811 0.68503,-0.590531 1.847951,-0.0145 1.213731,0.6012 1.756291,0.559872 2.423911,-0.18466 1.09406,-1.2201 -0.34013,-2.2204 -1.69328,-1.181 -0.56057,0.43058 -1.347031,0.46831 -1.998181,0.0958 -1.015619,-0.580941 -2.191221,0.242879 -2.220191,1.555821 -0.0181,0.822359 1.325981,0.599829 1.63979,-0.271492 z M 62.675805,95.38951 c -0.0464,-1.68171 -0.125381,-1.740659 -0.69323,-0.517588 -0.875181,1.884979 -0.875181,2.415418 0,2.415418 0.410099,0 0.722059,-0.854028 0.69323,-1.89783 z m 7.38202,-4.696108 c 0.69686,-0.53117 -2.542482,-3.831992 -4.1203,-4.198522 -2.318822,-0.538649 -3.809241,0.665382 -2.555031,2.06407 0.48913,0.545491 0.837829,1.257401 0.774869,1.58202 -0.259718,1.339292 0.193392,1.519892 2.858302,1.13928 1.53789,-0.219638 2.906868,-0.483729 3.04216,-0.586848 z m -13.660072,-2.38887 c 0.257601,-0.38576 0.776872,-0.524912 1.15394,-0.309221 0.377061,0.215691 0.470771,-0.125929 0.20823,-0.759151 -0.406559,-0.98058 -0.246708,-1.037058 1.077992,-0.380899 2.2142,1.096761 2.945199,0.95322 1.236649,-0.242829 -1.132181,-0.79257 -1.203819,-1.035291 -0.328919,-1.114542 0.615148,-0.0557 -0.0559,-0.334219 -1.49129,-0.618889 -1.435372,-0.284671 -3.15414,-0.732809 -3.819511,-0.995871 -0.988579,-0.39084 -1.147919,-0.123999 -0.87158,1.459601 0.508709,2.91516 0.843819,3.663169 1.641099,3.663169 0.39878,0 0.935802,-0.315619 1.19339,-0.701368 z m 15.651012,-0.678871 c 0.25346,-0.37956 -0.0623,-0.69011 -0.701641,-0.69011 -0.63936,0 -1.162471,-0.465841 -1.162471,-1.035179 0,-0.569352 -0.279619,-1.03518 -0.621368,-1.03518 -1.215581,0 -1.552321,0.89023 -0.817452,2.16109 0.806011,1.393878 2.55987,1.712159 3.302932,0.599379 z M 67.615044,84.80506 c 0.275539,-0.412628 1.133861,-0.597059 1.90737,-0.409839 0.77352,0.187211 1.5943,0.059 1.823969,-0.284941 0.229661,-0.34394 0.006,-0.625329 -0.496348,-0.625329 -0.502671,0 -0.69315,-0.204351 -0.423301,-0.454089 0.26984,-0.249761 0.0741,-0.92901 -0.434959,-1.50945 -0.77433,-0.882902 -0.716251,-0.982782 0.355409,-0.61123 0.704551,0.244268 1.455611,0.18265 1.66901,-0.13693 0.2134,-0.31959 -0.436779,-0.72699 -1.444839,-0.905351 -1.00807,-0.178351 -1.65544,-0.0586 -1.43859,0.266149 0.68036,1.018871 -0.956331,0.641851 -1.930691,-0.444759 -0.76023,-0.84782 -0.709279,-1.035179 0.28153,-1.035179 0.665369,0 1.20976,-0.348581 1.20976,-0.774621 0,-0.535191 0.34571,-0.509069 1.11847,0.0845 0.7053,0.541761 1.11846,0.58802 1.11846,0.12523 0,-0.793941 -1.40829,-1.80376 -2.609749,-1.871329 -0.410102,-0.0231 -0.688232,-0.342511 -0.618062,-0.709891 0.0702,-0.367371 -0.685199,-1.022961 -1.678609,-1.45687 -0.99341,-0.4339 -1.658951,-0.568391 -1.478981,-0.29887 0.17998,0.26952 -0.824378,0.520239 -2.231898,0.55717 -2.1253,0.0558 -2.94966,-0.389231 -4.86283,-2.624921 -1.69273,-1.978109 -1.99666,-2.692069 -1.145982,-2.692069 0.708742,0 0.99568,-0.390821 0.739902,-1.00775 -0.302331,-0.729189 0.0141,-0.930759 1.14467,-0.72924 0.859369,0.153181 1.896768,0.46971 2.30533,0.703411 0.408559,0.233709 0.742839,0.096 0.742839,-0.305932 0,-0.401969 -0.503309,-0.730848 -1.11846,-0.730848 -0.615159,0 -1.118471,-0.36231 -1.118471,-0.805141 0,-0.442819 0.188111,-0.631041 0.41801,-0.41825 0.380172,0.351851 4.055851,-2.60259 4.055851,-3.260011 0,-0.153969 -1.42604,0.319151 -3.168981,1.051391 -1.74294,0.732239 -3.92395,1.338159 -4.84669,1.346499 -1.730899,0.01561 -2.406168,1.34163 -0.745638,1.46418 0.51263,0.0378 0.0932,0.317442 -0.932061,0.621332 l -1.864111,0.55254 1.769001,0.0688 c 1.35731,0.0528 1.583039,0.27617 0.969971,0.959869 -0.59358,0.661972 -0.422532,1.108721 0.665249,1.73746 1.112539,0.64306 1.345301,1.285151 0.96895,2.672991 -0.40176,1.481529 -0.273249,1.747739 0.68022,1.409099 0.646559,-0.229629 1.583441,0.0373 2.081969,0.593331 1.387882,1.547759 0.306091,1.916411 -1.827258,0.622681 -1.047702,-0.635371 -2.335091,-0.995252 -2.86086,-0.799751 -0.678831,0.25241 -0.629671,0.37125 0.169569,0.40994 1.310751,0.0634 3.448629,2.81496 2.187181,2.81496 -0.440542,0 -1.46861,-0.330689 -2.28459,-0.734869 -0.81598,-0.40418 -1.884431,-0.610682 -2.374321,-0.45888 -0.4899,0.151799 0.115901,0.794189 1.346211,1.427549 l 2.23693,1.151551 -3.728222,-0.32829 -3.72822,-0.328292 1.75537,1.35722 c 0.965462,0.746461 1.976091,1.23095 2.245871,1.076642 0.269769,-0.15431 2.667481,0.746959 5.32825,2.00283 4.920671,2.322528 9.192091,3.03135 10.0974,1.675609 z m -1.073399,-1.271368 c -0.641051,-0.366691 -0.717312,-0.722352 -0.216342,-1.008912 0.425551,-0.243419 0.998281,-0.106299 1.272741,0.304711 0.68485,1.02558 0.140179,1.388649 -1.056399,0.704201 z m 2.151719,-1.46971 c 0,-0.401971 0.335539,-0.538922 0.745651,-0.304332 0.410099,0.234591 0.745638,0.56347 0.745638,0.730851 0,0.167381 -0.335539,0.304329 -0.745638,0.304329 -0.410112,0 -0.745651,-0.32888 -0.745651,-0.730848 z M 56.017425,80.03435 c 0,-0.379558 0.503309,-0.690118 1.11846,-0.690118 0.615159,0 1.11847,-0.34858 1.11847,-0.77462 0,-0.535192 0.34571,-0.509072 1.11846,0.0845 0.615159,0.472519 1.118468,0.654899 1.118468,0.405278 0,-0.249608 0.69982,-0.107199 1.555152,0.316481 0.855329,0.423669 1.380958,0.931521 1.168069,1.128559 -0.212889,0.197041 -0.82292,0.108942 -1.355629,-0.195768 -1.32891,-0.76015 -3.60452,-0.86052 -3.60452,-0.15898 0,0.31613 -0.503311,0.574789 -1.11847,0.574789 -0.615151,0 -1.11846,-0.31055 -1.11846,-0.690121 z m 7.456429,-3.17324 c -1.767279,-0.999228 -1.776971,-1.037159 -0.186409,-0.730269 0.922739,0.17803 1.677699,0.02389 1.677699,-0.34254 0,-0.36644 0.335539,-0.474311 0.745651,-0.23972 0.864648,0.49459 1.015328,2.42721 0.18641,2.39096 -0.307581,-0.01349 -1.39808,-0.49875 -2.423351,-1.078431 z m 16.820891,6.256832 c -1.466929,-1.026911 -2.653652,-1.31577 -2.653652,-0.645941 0,0.33536 2.847382,1.585881 3.72822,1.63738 0.205052,0.01201 -0.278508,-0.434171 -1.074568,-0.991439 z m 4.257749,-2.156031 c -0.50483,-0.189029 -1.511451,-0.200539 -2.236941,-0.02551 -0.72548,0.174971 -0.312438,0.329641 0.917871,0.343712 1.23031,0.0141 1.82389,-0.129101 1.31907,-0.31814 z m 6.541841,-2.027971 c 1.575848,-0.210449 3.034419,-0.935199 3.615648,-1.796589 0.874871,-1.296581 0.83362,-1.39178 -0.404479,-0.933469 -3.292139,1.218689 -8.23381,2.436688 -9.953609,2.453328 -1.025261,0.01 -2.36742,0.34195 -2.982582,0.737841 -1.08771,0.70001 2.196571,0.54429 9.725022,-0.461111 z M 50.052264,75.22517 c 0,-0.367649 0.503309,-0.489699 1.118471,-0.271219 0.708239,0.251539 1.11847,-0.01 1.11847,-0.71178 0,-1.30516 -1.5597,-1.45977 -2.833452,-0.280871 -1.0888,1.007721 -1.160158,1.932332 -0.14913,1.932332 0.410102,0 0.745641,-0.3008 0.745641,-0.668462 z m 27.588829,-0.35678 c 0,-0.18432 -2.090848,-1.311979 -4.646319,-2.505919 -3.293549,-1.53878 -4.324749,-1.810499 -3.54181,-0.933281 2.14658,2.405092 8.188129,4.942681 8.188129,3.4392 z M 55.201275,71.853561 c -1.101992,-0.35055 -1.661781,0.360381 -1.029422,1.307359 0.400891,0.60036 0.703202,0.567631 1.169231,-0.126619 0.369189,-0.549971 0.311499,-1.03718 -0.139809,-1.18074 z m 23.157299,-0.0726 c -2.634109,-2.08386 -4.445701,-2.65359 -4.445701,-1.39814 0,0.86228 4.441772,3.434339 5.936991,3.43788 0.618821,0.0011 -0.02609,-0.880579 -1.49129,-2.03974 z m -42.675489,0.93525 c -0.247772,-0.22932 -0.890892,-0.253839 -1.42915,-0.0545 -0.59482,0.2203 -0.418142,0.383828 0.450498,0.416938 0.78603,0.03 1.226421,-0.133138 0.978652,-0.362458 z m 25.966509,-0.24257 c 1.12725,0.86588 2.842649,0.246041 2.15773,-0.779661 -0.24008,-0.35954 -0.763561,-0.466619 -1.16329,-0.237959 -0.399741,0.228651 -1.279811,7.94e-4 -1.955721,-0.506341 -1.038789,-0.779388 -1.130178,-0.77044 -0.590669,0.0578 0.489011,0.750761 0.32344,0.868109 -0.70797,0.501801 -1.17385,-0.416912 -1.216871,-0.333862 -0.335989,0.64851 0.663268,0.739679 1.10856,0.85372 1.29644,0.33206 0.212868,-0.591061 0.545748,-0.59522 1.299469,-0.0163 z m 5.140299,-0.779661 c -0.24007,-0.35954 -0.75433,-0.47189 -1.142788,-0.24969 -0.388462,0.222202 -0.50985,0.698161 -0.26978,1.05769 0.24008,0.359532 0.75434,0.47189 1.142799,0.24969 0.388451,-0.2222 0.509849,-0.698159 0.269769,-1.05769 z m -24.702749,0.299712 c 0.464119,-0.429562 -1.580581,-2.24341 -2.580531,-2.289181 -0.2637,-0.01209 -0.666028,0.428059 -0.89408,0.97808 -0.27712,0.668399 -0.0563,0.872771 0.665871,0.616289 0.59427,-0.211058 1.08049,-0.04 1.08049,0.380201 0,0.84188 0.968139,1.018109 1.72825,0.314611 z M 79.505204,70.6588 c -2.4409,-1.89276 -4.84669,-3.275428 -4.84669,-2.78552 0,0.401431 6.12988,4.57753 6.671281,4.544941 0.22679,-0.01371 -0.594281,-0.805389 -1.824591,-1.759421 z m 4.846691,0.175162 c 0,-0.39874 -7.26303,-4.602461 -7.933431,-4.591732 -1.231249,0.01971 5.334521,4.768961 6.628551,4.79466 0.717679,0.01421 1.30488,-0.0771 1.30488,-0.202928 z m 3.72822,-0.924531 c 0,-1.025339 -2.55669,-2.987349 -3.892809,-2.987349 -0.783601,0 -2.157651,-0.348562 -3.053422,-0.774592 -2.251059,-1.070599 -0.741151,0.21077 2.831859,2.403211 2.996171,1.838489 4.114372,2.20776 4.114372,1.35873 z m -24.348951,-1.98193 c -0.24285,-0.585721 -0.601451,-0.91694 -0.796909,-0.736039 -0.19545,0.180898 -0.134202,0.66013 0.13612,1.064948 0.735248,1.101061 1.164979,0.88715 0.660789,-0.328909 z m 8.94773,-1.380241 c -0.242851,-0.585719 -0.601459,-0.91693 -0.79691,-0.736029 -0.19545,0.180901 -0.134199,0.66012 0.136121,1.06494 0.73524,1.101061 1.164979,0.887151 0.660789,-0.328911 z m 13.53711,-0.681749 c -1.230321,-0.933379 -2.55378,-1.698591 -2.941029,-1.70048 -0.38725,-0.0021 0.4329,0.772959 1.822558,1.721871 3.242892,2.214369 4.045252,2.199018 1.118471,-0.02141 z M 69.439015,66.65086 c 0,-0.14918 -0.52074,-0.456168 -1.1572,-0.68222 -0.663562,-0.23567 -0.962861,-0.11997 -0.70163,0.271232 0.43788,0.655749 1.85883,0.969918 1.85883,0.410988 z m 21.99649,-0.418899 c 1.447088,-0.575519 1.443649,-0.59454 -0.115861,-0.641609 -0.883931,-0.0267 -3.01281,-1.135441 -4.730819,-2.463922 -1.718021,-1.328478 -3.511351,-2.46272 -3.98518,-2.52054 -0.473829,-0.0578 -1.197049,-0.143658 -1.607151,-0.19077 -0.410109,-0.0471 -1.198549,-0.347839 -1.752089,-0.668279 -0.83261,-0.481999 -0.846072,-0.300051 -0.0779,1.05342 0.92651,1.632479 0.925053,1.63318 -0.671248,0.321379 -0.879882,-0.723069 -1.599781,-0.994008 -1.599781,-0.602089 0,0.391909 0.53962,1.12707 1.199149,1.633681 1.008103,0.77434 1.334802,0.75239 2.050521,-0.137771 0.735301,-0.914509 1.410449,-0.656051 4.95241,1.895911 4.51716,3.254589 4.24247,3.154008 6.33797,2.320589 z M 73.540054,64.161602 c -0.25346,-0.379561 -0.796369,-0.69011 -1.206479,-0.69011 -0.410101,0 -0.538271,0.310549 -0.28481,0.69011 0.25346,0.379568 0.796369,0.690118 1.20647,0.690118 0.41011,0 0.538279,-0.31055 0.284819,-0.690118 z m 1.864111,-0.238091 c 0,-0.130961 -0.75497,-0.829709 -1.677701,-1.552771 l -1.677699,-1.314669 1.420439,1.552771 c 1.334871,1.459219 1.934961,1.866939 1.934961,1.314669 z m 15.596389,-1.36439 c -1.668209,-1.19331 -7.497289,-3.832601 -6.648659,-3.010371 1.221168,1.18319 5.183719,3.221572 6.275829,3.228361 0.375931,0.0021 0.5437,-0.0958 0.37283,-0.21799 z m 5.1812,-0.100751 c -0.191939,-0.177649 -1.67391,-0.808789 -3.29326,-1.402519 l -2.944271,-1.079529 1.760302,1.402519 c 1.43872,1.1463 5.64523,2.160551 4.477229,1.079529 z m -28.14411,-2.229411 c 2.766571,-1.694497 3.104391,-1.756679 3.749289,-0.690118 0.90728,1.50049 2.229842,1.535661 1.610902,0.0428 -0.320982,-0.77417 -0.13984,-1.02803 0.575969,-0.80719 1.166921,0.36001 2.921651,-0.978549 2.921651,-2.228718 0,-0.447291 0.502928,-0.634622 1.117629,-0.416311 0.614701,0.218321 1.87297,0.115951 2.79617,-0.227481 0.923189,-0.343429 1.21802,-0.644099 0.655172,-0.66816 -1.656202,-0.0708 0.544668,-2.114109 2.277128,-2.114109 0.7942,0 1.235149,-0.31274 0.9799,-0.694991 -0.255241,-0.382249 0.0585,-0.880618 0.69736,-1.10749 0.638799,-0.226878 0.975799,-0.69051 0.7489,-1.030309 -0.226901,-0.339791 0.100031,-0.6178 0.72652,-0.6178 0.633762,0 0.972489,-0.401769 0.763579,-0.90565 -0.213047,-0.513871 0.522851,-1.334391 1.701102,-1.896732 1.142129,-0.545089 2.24436,-1.148749 2.44942,-1.341448 0.979911,-0.920922 9.980235,-4.79226 10.348625,-4.451291 0.23101,0.213801 -0.0736,0.67764 -0.67686,1.030761 -1.356,0.793699 -0.1338,0.776229 1.88571,-0.027 0.8202,-0.32621 1.04925,-0.614929 0.50898,-0.641609 -0.65086,-0.0321 -0.81574,-0.53421 -0.48867,-1.48798 0.43645,-1.272741 0.31841,-1.352672 -1.0192,-0.69011 -2.10364,1.04199 -2.705727,0.935159 -1.61087,-0.285829 0.51054,-0.569352 1.47436,-1.045062 2.14182,-1.057133 1.07722,-0.0195 1.06696,-0.12496 -0.0913,-0.938728 -1.79017,-1.257739 -1.66373,-1.549 1.05297,-2.42552 1.29681,-0.418409 2.16441,-0.939782 1.92797,-1.15861 -0.23643,-0.218821 -1.12969,-0.0512 -1.98502,0.372459 -1.86901,0.92578 -2.01382,0.26434 -0.32112,-1.4668 1.12998,-1.155628 1.13195,-1.262049 0.0234,-1.262049 -0.81083,0 -1.0763,-0.39883 -0.8039,-1.207709 0.22371,-0.664242 -0.61872,-0.140211 -1.87205,1.164508 -3.212355,3.34406 -3.682096,2.156042 -1.001327,-2.532439 1.251777,-2.189271 2.696987,-5.300351 3.211577,-6.913501 0.51459,-1.61315 1.34771,-2.93301 1.85138,-2.93301 0.51864,0 1.14218,-1.39732 1.43784,-3.22209 0.28714,-1.77215 0.74466,-2.89 1.01672,-2.48411 0.27206,0.40589 0.50631,-1.08811 0.52055,-3.3199997 l 0.0259,-4.0579892 -3.43223,8.8667789 c -4.461347,11.52539 -6.605553,15.48919 -12.065913,22.3052 -5.388242,6.72596 -17.15983,17.773711 -23.64994,22.195682 -5.12164,3.489568 -5.550701,4.29927 -0.70571,1.331769 z m 19.296819,-1.243247 c -0.510529,-0.569352 -1.28683,-1.03518 -1.725099,-1.03518 -0.438269,0 -0.145529,0.455948 0.650531,1.01323 1.87043,1.30937 2.23569,1.316828 1.074568,0.02191 z m 5.594811,0.348768 c -0.252101,-0.377518 -1.194628,-1.016169 -2.094519,-1.419199 -1.550122,-0.694261 -1.5436,-0.658161 0.124119,0.686401 1.899751,1.531639 2.703409,1.83052 1.9704,0.732798 z m 6.335492,-1.030229 c 0,-0.485029 -5.702961,-3.74622 -7.908123,-4.52219 -2.80811,-0.988139 -1.496758,0.479938 2.55084,2.855709 3.11191,1.826551 5.357283,2.525022 5.357283,1.666481 z m -0.0564,-2.170351 c -3.076143,-3.091389 -11.873864,-6.34737 -11.873864,-4.394438 0,0.379558 0.85222,0.690118 1.893821,0.690118 2.048891,0 6.308249,1.8805 9.290842,4.101891 2.571395,1.915149 2.837675,1.76154 0.689211,-0.397571 z M 88.053514,56.299302 C 87.453015,55.770691 86.122833,55.133161 85.097575,54.88258 l -1.864111,-0.4556 1.760299,1.41672 c 2.068952,1.66511 4.915231,2.08893 3.059761,0.455602 z m 14.527916,-1.029481 c -1.66173,-0.69859 -4.446236,-2.102691 -6.187795,-3.120221 -3.88916,-2.272299 -6.822202,-3.35439 -6.822202,-2.516938 0,0.34073 1.108422,0.958088 2.463142,1.371888 1.354719,0.413811 4.279389,1.83538 6.499241,3.159061 2.219854,1.323669 4.718494,2.399859 5.552534,2.39153 0.99811,-0.01 0.48373,-0.4493 -1.50491,-1.28532 z m 1.54597,-1.443731 c -0.73353,-0.750178 -1.56846,-1.229669 -1.85541,-1.06554 -0.28694,0.164139 -0.52172,-0.153739 -0.52172,-0.70639 0,-1.381249 0.76334,-1.258729 2.36535,0.379651 0.74456,0.761449 1.52488,1.22606 1.73407,1.032449 0.20918,-0.193599 -0.43188,-1.171948 -1.42458,-2.174111 l -1.80491,-1.822098 2.02663,1.199589 c 1.11464,0.659771 2.45591,1.067142 2.98059,0.90527 1.15232,-0.3555 -1.49042,-1.786359 -3.93781,-2.132039 -0.90916,-0.128421 -2.0767,-0.769739 -2.59451,-1.425171 -0.6285,-0.79552 -1.110557,-0.938479 -1.450077,-0.430029 -0.279727,0.418909 -0.075,1.245211 0.454967,1.836218 0.94958,1.058982 1.56831,3.005691 0.9553,3.005691 -0.17297,0 -1.904864,-1.02289 -3.848656,-2.273088 -1.943791,-1.250202 -4.327038,-2.320481 -5.29613,-2.378411 -1.886411,-0.11275 -1.75177,0.510111 0.166589,0.770699 0.633061,0.086 1.754312,0.660421 2.491671,1.276511 1.305089,1.090441 9.654646,5.364761 10.479646,5.364761 0.22698,0 -0.18748,-0.61378 -0.92101,-1.363962 z m 6.69489,-4.15699 c 0.25346,-0.379569 -0.0623,-0.690118 -0.70164,-0.690118 -0.63936,0 -1.16247,0.310549 -1.16247,0.690118 0,0.379561 0.31573,0.690121 0.70163,0.690121 0.3859,0 0.90902,-0.31056 1.16248,-0.690121 z m -4.22904,-1.365419 c -1.09566,-0.30616 -2.43782,-0.768329 -2.98258,-1.027031 -0.54476,-0.258709 -0.33914,0.0185 0.45692,0.615971 0.79607,0.597501 2.13823,1.059659 2.98258,1.027039 1.23189,-0.0476 1.14163,-0.169289 -0.45692,-0.615979 z M 98.519166,46.90862 c 0,-0.379569 -0.355341,-0.690121 -0.789652,-0.690121 -0.434308,0 -0.582269,0.310552 -0.328819,0.690121 0.25346,0.379571 0.608809,0.690121 0.78966,0.690121 0.18085,0 0.328811,-0.31055 0.328811,-0.690121 z m 11.385254,0.23744 c -0.50482,-0.18904 -1.51144,-0.200539 -2.23693,-0.02558 -0.72549,0.174969 -0.31245,0.329639 0.91786,0.343699 1.23032,0.0141 1.82389,-0.129091 1.31907,-0.31813 z M 97.214243,45.103281 c 0.71769,-0.234299 1.30488,-0.73356 1.30488,-1.109459 0,-0.375912 -0.530749,-0.494961 -1.179449,-0.26457 -0.6487,0.230388 -1.451649,0.418888 -1.784329,0.418888 -0.332689,0 -0.808781,0.491781 -1.057992,1.092851 -0.298849,0.720788 -0.13562,0.955889 0.479462,0.69056 0.5129,-0.22125 1.519749,-0.593979 2.237428,-0.82827 z m 4.660277,0.4251 c -0.25346,-0.37956 -0.77657,-0.69012 -1.16248,-0.69012 -0.3859,0 -0.70163,0.31056 -0.70163,0.69012 0,0.379569 0.52311,0.690118 1.16247,0.690118 0.63936,0 0.9551,-0.310549 0.70164,-0.690118 z m 2.98257,0 c -0.28375,-0.424931 0.97179,-0.69012 3.26739,-0.69012 2.05052,0 3.96764,-0.35854 4.26026,-0.796751 0.30085,-0.450529 0.20721,-0.610938 -0.2155,-0.369149 -0.41114,0.23518 -2.86189,0.48631 -5.44612,0.55808 -4.13749,0.114909 -4.5347,0.241401 -3.32621,1.05927 1.63273,1.10498 2.0884,1.17946 1.46018,0.23867 z m 11.55749,-2.070362 c 0.61515,-0.36794 0.78292,-0.668977 0.37282,-0.668977 -0.41011,0 -1.24896,0.301037 -1.86411,0.668977 -0.61516,0.367941 -0.78293,0.668991 -0.37282,0.668991 0.4101,0 1.24895,-0.30105 1.86411,-0.668991 z m -2.98258,-2.2064 c 0.73641,-0.422388 -0.003,-0.500139 -2.16526,-0.227607 -1.80605,0.227658 -3.81929,0.712618 -4.47386,1.07769 -0.81392,0.453937 -0.12944,0.525888 2.16526,0.227608 1.84547,-0.23989 3.8587,-0.72485 4.47386,-1.077691 z m 7.62106,-1.630359 c 1.87706,-0.59195 3.94122,-1.61665 4.58701,-2.2771 0.99887,-1.02154 0.34221,-0.947798 -4.39849,0.493972 -3.06496,0.93213 -5.57265,1.956829 -5.57265,2.277099 0,0.85724 1.55058,0.714989 5.38413,-0.493971 z m -7.80747,-1.426898 c 0.98604,-0.575533 1.6777,-0.682382 1.6777,-0.259181 0,0.396028 1.37469,0.071 3.05486,-0.722371 1.68019,-0.793329 3.54308,-1.269029 4.13977,-1.057111 0.5967,0.211932 0.89762,0.104852 0.66871,-0.237947 -0.22891,-0.342802 0.72699,-1.277192 2.12422,-2.076421 4.52696,-2.589469 3.38805,-3.225192 -1.69144,-0.944121 -2.7174,1.220311 -5.52792,2.23239 -6.2456,2.249062 -0.71768,0.0167 -1.30488,0.486399 -1.30488,1.043839 0,0.609619 -0.43818,0.85789 -1.09954,0.622999 -0.99153,-0.35215 -6.3569,2.13945 -6.3569,2.952051 0,0.51208 3.14753,-0.470241 5.0331,-1.570799 z m -1.79482,-2.120911 c 1.1659,-0.549251 1.97271,-1.134779 1.79293,-1.301181 -0.39057,-0.36149 -7.26814,2.381282 -7.26814,2.898539 0,0.474951 2.82711,-0.349848 5.47521,-1.597358 z m 0.19973,-3.1921 c 0.88336,0.294209 3.65222,-3.104581 3.01195,-3.697182 -0.43169,-0.399539 -6.85953,3.550582 -7.61245,4.678111 -0.27111,0.406012 0.46673,0.28932 1.63966,-0.259299 1.17292,-0.548622 2.5053,-0.873361 2.96084,-0.72163 z m 8.12475,-0.849651 c 3.39993,-1.84412 8.56963,-6.657 8.56963,-7.97814 0,-0.42199 -2.19328,1.13168 -4.87397,3.45259 -4.75338,4.11544 -6.31069,4.976432 -6.31069,3.488992 0,-0.401961 -0.37136,-0.518422 -0.82525,-0.258792 -0.58822,0.33646 -0.56252,0.62234 0.0895,0.995281 0.66805,0.382129 0.53871,0.72541 -0.47962,1.272989 -0.82258,0.44231 -0.99015,0.75836 -0.40865,0.77074 0.54212,0.01151 2.44972,-0.7731 4.23909,-1.74366 z m -10.61708,-2.651009 c 0.51683,0.478348 2.79438,-3.401281 2.75573,-4.69415 -0.0278,-0.929871 -3.14886,2.203418 -4.60599,4.62403 -0.71657,1.190369 -0.67641,1.262399 0.29188,0.523579 0.6175,-0.471159 1.31877,-0.675219 1.55838,-0.453459 z m 13.57367,-7.661431 c 0.98054,-1.51826 1.99496,-3.69214 2.25426,-4.83084 0.45582,-2.00159 0.40985,-1.98109 -1.38367,0.61717 -1.02033,1.47814 -3.80997,4.52239 -6.1992,6.76499 -2.38923,2.2426 -3.75686,3.87261 -3.03918,3.62224 0.94685,-0.330308 1.31256,-0.10359 1.33288,0.826331 0.0214,0.979098 0.64442,0.630079 2.64005,-1.478931 1.43662,-1.51827 3.41431,-4.002699 4.39486,-5.52096 z m -14.51935,0.23389 c 0,-2.15143 -1.37587,-0.77808 -2.25796,2.25383 -0.44397,1.52598 -0.9885,3.298551 -1.21007,3.939052 -0.22157,0.640498 0.46809,-0.187011 1.53259,-1.838912 1.06449,-1.651889 1.93544,-3.61118 1.93544,-4.35397 z m -3.48546,1.081511 c -0.56826,-1.370601 -0.7383,-1.247021 -1.66329,1.208809 -0.80129,2.1274 -0.78651,2.15045 0.62242,0.97034 0.79375,-0.66485 1.26214,-1.64547 1.04087,-2.179149 z m 6.06179,-5.925101 c 1.784,-4.12663 2.50243,-8.3279989 1.94592,-11.3796491 l -0.48215,-2.6438698 -1.29306,4.6963398 c -0.71118,2.5829891 -1.9177,6.2178591 -2.68115,8.0774791 -1.31674,3.20732 -1.19221,3.85436 0.78521,4.07962 0.26304,0.03 1.0394,-1.2435 1.72523,-2.82992 z M 45.578403,67.57147 c 0,-0.401958 0.335542,-0.538909 0.745641,-0.304329 0.41011,0.23459 0.745649,0.56347 0.745649,0.73085 0,0.167381 -0.335539,0.304329 -0.745649,0.304329 -0.410099,0 -0.745641,-0.328879 -0.745641,-0.73085 z"
       style="fill:#000000;stroke-width:0.717346" />
  </g>
</svg>
